<mxfile host="app.diagrams.net" modified="2023-09-22T10:57:37.089Z" agent="Mozilla/5.0 (Windows NT 10.0; Win64; x64) AppleWebKit/537.36 (KHTML, like Gecko) Chrome/116.0.0.0 Safari/537.36" etag="Olo00Y-qzgdaVT0FIlpe" version="21.8.0" type="github">
  <diagram name="Page-1" id="_MTYcoZ_pEvMErZoWSPA">
    <mxGraphModel dx="1434" dy="758" grid="1" gridSize="10" guides="1" tooltips="1" connect="1" arrows="1" fold="1" page="1" pageScale="1" pageWidth="850" pageHeight="1100" math="0" shadow="0">
      <root>
        <mxCell id="0" />
        <mxCell id="1" parent="0" />
        <mxCell id="V4VUdm72Drd0ob-0342w-1" value="" style="ellipse;whiteSpace=wrap;html=1;" vertex="1" parent="1">
          <mxGeometry x="130" y="270" width="70" height="70" as="geometry" />
        </mxCell>
        <mxCell id="V4VUdm72Drd0ob-0342w-2" value="" style="rounded=0;whiteSpace=wrap;html=1;" vertex="1" parent="1">
          <mxGeometry x="340" y="270" width="140" height="70" as="geometry" />
        </mxCell>
        <mxCell id="V4VUdm72Drd0ob-0342w-3" value="" style="endArrow=classic;html=1;rounded=0;" edge="1" parent="1">
          <mxGeometry width="50" height="50" relative="1" as="geometry">
            <mxPoint x="220" y="304.5" as="sourcePoint" />
            <mxPoint x="320" y="304.5" as="targetPoint" />
          </mxGeometry>
        </mxCell>
        <mxCell id="V4VUdm72Drd0ob-0342w-4" value="" style="endArrow=classic;html=1;rounded=0;" edge="1" parent="1">
          <mxGeometry width="50" height="50" relative="1" as="geometry">
            <mxPoint x="490" y="304.5" as="sourcePoint" />
            <mxPoint x="590" y="305" as="targetPoint" />
          </mxGeometry>
        </mxCell>
        <mxCell id="V4VUdm72Drd0ob-0342w-7" value="" style="ellipse;whiteSpace=wrap;html=1;" vertex="1" parent="1">
          <mxGeometry x="620" y="270" width="70" height="70" as="geometry" />
        </mxCell>
        <mxCell id="V4VUdm72Drd0ob-0342w-8" value="&lt;font style=&quot;font-size: 24px;&quot;&gt;Browse Items&amp;nbsp;&lt;/font&gt;" style="text;html=1;strokeColor=none;fillColor=none;align=center;verticalAlign=middle;whiteSpace=wrap;rounded=0;" vertex="1" parent="1">
          <mxGeometry x="340" y="270" width="140" height="70" as="geometry" />
        </mxCell>
      </root>
    </mxGraphModel>
  </diagram>
</mxfile>
